<?xml version="1.0" standalone="no"?>
<!DOCTYPE svg PUBLIC "-//W3C//DTD SVG 20010904//EN"
 "http://www.w3.org/TR/2001/REC-SVG-20010904/DTD/svg10.dtd">
<svg version="1.0" xmlns="http://www.w3.org/2000/svg"
 width="1080.000000pt" height="1009.000000pt" viewBox="0 0 1080.000000 1009.000000"
 preserveAspectRatio="xMidYMid meet">

<g transform="translate(0.000000,1009.000000) scale(0.100000,-0.100000)"
fill="#000000" stroke="none">
<path d="M5448 8673 c-19 -16 -50 -39 -68 -53 -18 -14 -85 -65 -149 -114 -165
-126 -299 -228 -332 -251 -35 -25 -309 -235 -329 -252 -8 -7 -94 -73 -190
-146 -96 -73 -240 -182 -320 -243 -80 -61 -221 -169 -315 -240 -93 -72 -253
-193 -355 -269 -102 -77 -187 -142 -190 -145 -3 -4 -41 -33 -85 -66 -161 -121
-245 -187 -244 -193 0 -7 -22 10 363 -281 170 -128 316 -239 325 -246 17 -14
225 -171 711 -537 168 -126 314 -238 325 -248 19 -19 19 -20 -62 -100 l-81
-82 -123 85 c-68 47 -189 130 -269 185 -208 143 -252 173 -787 541 -265 183
-487 332 -493 332 -6 0 -10 -24 -10 -56 0 -30 -7 -533 -15 -1117 -9 -584 -17
-1278 -18 -1542 l-2 -480 180 -123 c99 -67 188 -129 198 -137 9 -8 21 -15 25
-15 5 0 17 -8 28 -18 10 -10 71 -53 134 -96 63 -43 147 -100 185 -127 59 -42
191 -135 269 -189 22 -15 387 -267 487 -336 31 -22 108 -74 170 -117 266 -182
508 -349 656 -451 306 -212 342 -236 351 -236 13 0 19 260 33 1320 6 481 14
974 18 1095 l6 220 103 3 102 3 0 -1346 c0 -927 3 -1345 10 -1345 10 0 183
124 455 325 171 127 321 237 374 275 27 19 150 109 273 200 200 147 419 309
488 360 14 10 63 47 110 82 47 35 135 99 195 143 61 44 112 82 115 85 3 4 28
22 55 40 44 31 182 132 242 179 12 9 72 53 134 96 61 44 124 91 139 105 l29
25 3 1649 c2 1094 0 1650 -7 1653 -5 1 -86 -54 -180 -123 -93 -69 -242 -178
-329 -242 -88 -64 -178 -131 -200 -147 -23 -17 -108 -80 -191 -140 -82 -60
-199 -145 -260 -190 -282 -209 -514 -375 -523 -375 -15 0 -182 161 -182 175 0
11 145 124 660 514 91 69 167 128 170 131 3 3 95 73 205 156 432 326 650 496
653 509 2 7 -6 18 -17 24 -11 6 -25 17 -33 24 -7 7 -58 46 -113 87 -55 41
-102 77 -105 80 -3 3 -113 86 -245 185 -132 99 -242 182 -245 185 -3 4 -97 75
-210 160 -113 85 -365 275 -560 423 -195 148 -371 281 -390 296 -19 14 -42 31
-50 38 -8 7 -53 41 -100 76 -99 73 -179 133 -200 150 -8 7 -80 60 -158 120
-162 121 -183 128 -244 80z"/>
</g>
</svg>
